<?xml version="1.0" encoding="UTF-8"?><svg id="Capa_1" xmlns="http://www.w3.org/2000/svg" viewBox="0 0 32 32"><defs><style>.cls-1{fill:#e85300;}</style></defs><path class="cls-1" d="M24.55,11.32v1.27c0,.37-.41.66-.92.66h-4.58v-5.58c0-.61.36-1.1.8-1.1h1.34V.06h-10.42v6.52h1.41c.4,0,.73.45.73,1.01v5.67h-3.87c-.88,0-1.6-.52-1.6-1.15v-.78H1.53v9.44h5.92v-1.27c0-.37.41-.66.92-.66h4.55v4.84c0,.97-.57,1.76-1.27,1.76h-.87v6.52h10.42v-6.52h-1.41c-.4,0-.73-.45-.73-1.01v-5.58h4.5c.55,0,1,.32,1,.72v1.22h5.92v-9.44h-5.92Z"/></svg>