<?xml version="1.0" encoding="UTF-8"?><svg id="Capa_1" xmlns="http://www.w3.org/2000/svg" viewBox="0 0 1808.61 323.04"><defs><style>.cls-1{fill:#b2b2b2;}</style></defs><path class="cls-1" d="M298.52,249.65V112.55c0-5.1-4.05-9.23-9.04-9.23h-8.6v-40.4h48.76c9.34,0,16.91,7.58,16.89,16.92l-.21,129.97c0,5.65,7.42,10.22,12.94,10.22h56.13c5.58,0,13.02-4.61,13.04-10.3l-.08-129.92c0-9.32,7.55-16.88,16.87-16.88h48.63v40.4h-10.53c-3.93,0-7.11,3.25-7.11,7.26v138.82c0,6.09-4.83,11.03-10.8,11.03h-156.33c-5.83,0-10.55-4.83-10.55-10.78Z"/><path class="cls-1" d="M929.45,260.55v-40.49h13.44c3.48,0,6.3-2.82,6.3-6.3v-102.51c0-4.51-3.65-8.16-8.16-8.16h-11.58v-40.49h77.5c6.1,0,11.74,3.27,14.77,8.58l58.47,102.5c1.95,3.42,7.22,2.04,7.2-1.88l-.38-97.93c-.02-6.21,5.01-11.27,11.22-11.27h55.72v40.49h-11.67c-4.46,0-8.07,3.61-8.07,8.07v98.4c0,5.8,4.7,10.5,10.5,10.5h9.24v40.49h-57.56c-14.39,0-27.67-7.71-34.81-20.2l-59.68-104.42c-2.55-4.46-8-2.67-8,2.45l-.09,111.88c0,5.69-4.62,10.29-10.3,10.29h-54.06Z"/><path class="cls-1" d="M1178.44,260.55v-40.49h7.52c6.1,0,11.04-4.88,11.04-10.91v-99.79c0-3.46-2.84-6.27-6.34-6.27h-12.22v-40.49h90.49v40.49h-11.65c-3.82,0-6.91,3.06-6.91,6.83v103.86c0,3.47,2.84,6.28,6.35,6.28h12.21v40.49h-90.49Z"/><path class="cls-1" d="M212.1,125.82v9.77c0,2.8-3.15,5.07-7.03,5.07h-35.1v-42.79c0-4.66,2.73-8.43,6.1-8.43h10.29v-50.01h-79.87v50.01h10.78c3.09,0,5.6,3.47,5.6,7.74v43.48h-29.71c-6.76,0-12.23-3.95-12.23-8.83v-6.02h-45.41v72.39h45.41v-9.77c0-2.81,3.15-5.08,7.04-5.08h34.9v37.08c0,7.44-4.36,13.47-9.74,13.47h-6.64v50.01h79.87v-50.01h-10.78c-3.1,0-5.61-3.47-5.61-7.75v-42.79h34.48c4.23,0,7.66,2.47,7.66,5.53v9.32h45.41v-72.39h-45.41Z"/><path class="cls-1" d="M1391.17,74.44l26.99,43.07c3.25,5.19,10.79,5.26,14.13.13l27.72-42.53c5.08-7.79,13.74-12.49,23.04-12.49h75.37v40.62h-10.12c-4.63,0-8.38,3.71-8.38,8.28v100.61c0,4.66,3.83,8.44,8.55,8.44h9.96v40.62h-90.2v-40.62h8.47c5.54,0,10.03-4.44,10.03-9.91v-95.9l-51.29,85.16c-4.93,8.18-16.8,8.13-21.66-.1l-49.63-84.08v94.93c0,5.47,4.48,9.9,10.02,9.9h8.49v40.62h-90.2v-40.62h7.79c5.92,0,10.72-4.74,10.72-10.59v-98.69c0-4.45-3.65-8.06-8.16-8.06h-10.34v-40.62h77.33c8.68,0,16.76,4.47,21.37,11.83Z"/><path class="cls-1" d="M691.71,63.81l-53.53-.47v33.23c0,5.54-2.68,10.73-7.2,13.94l-25.5,18.09-29.01-21.36c-3.72-2.74-5.91-7.07-5.91-11.69v-32.2h-53.53v60.2c0,4.02,1.91,7.81,5.15,10.19l37.31,27.47-36.81,26.1c-3.55,2.52-5.66,6.6-5.66,10.94v61.84h53.53v-31.79c0-5.85,2.83-11.33,7.6-14.71l26.73-18.96,26.19,19.28c4.47,3.29,7.11,8.51,7.11,14.06v32.12h53.53v-59.96c0-5.06-2.4-9.81-6.48-12.81l-34.36-25.3,36.16-25.64c2.93-2.08,4.68-5.46,4.68-9.05v-63.51Z"/><path class="cls-1" d="M713.95,247.33V76.01c0-6.63,5.66-12.01,12.65-12.01h158.85c10.09,0,18.27,7.77,18.27,17.35v162.28c0,9.66-8.24,17.49-18.41,17.49h-156.83c-8.02,0-14.52-6.18-14.52-13.79ZM761.67,117.96v87.4c0,5.22,4.46,9.45,9.95,9.45h73.42c6.26,0,11.34-4.82,11.34-10.77v-83.82c0-5.48-4.68-9.93-10.45-9.93h-76.2c-4.45,0-8.06,3.43-8.06,7.66Z"/><path class="cls-1" d="M1583.73,247.33V76.01c0-6.63,5.66-12.01,12.65-12.01h158.85c10.09,0,18.27,7.77,18.27,17.35v162.28c0,9.66-8.24,17.49-18.41,17.49h-156.83c-8.02,0-14.52-6.18-14.52-13.79ZM1631.45,117.96v87.4c0,5.22,4.46,9.45,9.95,9.45h73.42c6.26,0,11.34-4.82,11.34-10.77v-83.82c0-5.48-4.68-9.93-10.45-9.93h-76.2c-4.45,0-8.06,3.43-8.06,7.66Z"/></svg>